<svg xmlns="http://www.w3.org/2000/svg" width="34" height="34" viewBox="0 0 512 512">
  <path fill="#ffffff" d="M256 32C132.3 32 32 132.3 32 256c0 45.9 13.7 90.7 39.6 128.8L32 480l98.9-36.9C167.5 465.8 211.5 480 256 480c123.7 0 224-100.3 224-224S379.7 32 256 32zm0 406.2c-39.3 0-77.8-10.6-111.5-30.6l-8-4.7-58.7 21.9 20.9-60.6-5.2-8.3c-18.8-30-28.7-64.7-28.7-99.9 0-103.6 84.3-187.9 187.9-187.9S443.9 152.4 443.9 256 359.6 443.9 256 443.9zm109.3-137.4c-6-3-35.5-17.5-41-19.5-5.5-2-9.5-3-13.5 3s-15.5 19.5-19 23.5c-3.5 4-7 4.5-13 1.5-6-3-25.4-9.4-48.4-30-17.9-16-30-35.8-33.5-41.8-3.5-6-.4-9.2 2.6-12.2 2.7-2.7 6-7 9-10.5 3-3.5 4-6 6-10 2-4 .9-7.5-.6-10.5s-13.5-32.4-18.5-44.4c-4.9-11.8-9.9-10.2-13.5-10.4-3.5-.2-7.5-.2-11.5-.2s-10.5 1.5-16 7.5c-5.5 6-21 20.5-21 50s21.5 58 24.5 62c3 4 42.4 64.8 102.8 90.8 14.4 6.2 25.7 9.9 34.5 12.7 14.5 4.6 27.7 4 38.1 2.4 11.7-1.7 35.5-14.5 40.5-28.8 5-14.3 5-26.5 3.5-28.8-1.5-2.3-5.5-3.8-11.5-6.8z"/>
</svg>
